%
M48
M72
T01C0.0236
T02C0.0394
T03C0.0512
T04C0.1693
%
T01
X9000Y13125
X10125Y13750
X9875Y14375
X8500Y15375
X9875Y16250
X10375Y17125
X10375Y18625
X8419Y18431
X4875Y19375
X6000Y22250
X7000Y22125
X7750Y22625
X9750Y22875
X10125Y23375
X10125Y24000
X10000Y22125
X12125Y24000
X13375Y24000
X14625Y22625
X14875Y21375
X16500Y22625
X17169Y22181
X18250Y22250
X19500Y22000
X19625Y20875
X19250Y20500
X18250Y18625
X18750Y18250
X20500Y18625
X21125Y14125
X15125Y14875
X12500Y11875
X12500Y10750
X4500Y13250
X15500Y24750
X16875Y24750
X19875Y24125
X21250Y23750
X22625Y24000
X27500Y25500
X20625Y29125
X9250Y27875
T02
X7942Y27875
X6564Y27875
X5186Y27875
X3808Y27875
X10683Y27875
X12061Y27875
X13439Y27875
X14817Y27875
X17561Y27875
X18939Y27875
X21683Y27875
X23061Y27875
X24439Y27875
X25817Y27875
T03
X21527Y12112
X21527Y7388
X16723Y7388
X15936Y9750
X16723Y12112
X10277Y12112
X10277Y7388
X5473Y7388
X4686Y9750
X5473Y12112
X4875Y1875
X6875Y1875
X8875Y1875
X10875Y1875
X18000Y1875
X20000Y1875
X22000Y1875
T04
X1556Y1575
X1575Y27953
X27953Y27953
X27953Y1575
M30
